<svg width="173" height="21" viewBox="0 0 173 21" fill="none" xmlns="http://www.w3.org/2000/svg">
<g clip-path="url(#clip0_36_1283)">
<path d="M78.518 15.0378C78.518 10.9213 74.0375 9.85715 70.1731 8.65301C66.9247 7.61689 65.1885 6.88881 65.1885 4.81656C65.1885 2.66031 67.1767 1.96023 69.893 1.96023C72.9174 1.96023 75.4097 3.4444 75.4097 6.77679H77.7059C77.7059 3.55642 75.7177 0 69.893 0C65.0204 0 62.8922 1.84822 62.8922 4.87257C62.8922 8.37298 65.7205 9.46511 69.613 10.6132C72.7494 11.5654 76.2218 12.1814 76.2218 15.1498C76.2218 17.5301 74.2895 18.3421 70.9291 18.3421C66.7847 18.3421 64.2924 17.278 64.2924 12.6295H61.9961C61.9961 17.25 64.0403 20.3024 70.9291 20.3024C76.7538 20.3024 78.518 17.9781 78.518 15.0378Z" fill="black"/>
<path d="M83.7194 20.0223H88.424L92.4564 0.924108H93.1285L97.161 20.0223H101.866L106.066 0.280032H103.882L99.8213 19.3783H99.1772L95.1728 0.280032H90.4122L86.4077 19.3783H85.7637L81.7032 0.280032H79.5189L83.7194 20.0223Z" fill="black"/>
<path d="M119.862 0.280032H108.745V2.24026H113.17V18.0621H108.745V20.0223H119.862V18.0621H115.466V2.24026H119.862V0.280032Z" fill="black"/>
<path d="M125.679 20.0223V12.0974H135.592V20.0223H137.888V12.6015C137.888 11.5654 137.44 11.1173 136.32 11.1173H133.968V10.4452C136.096 10.0812 137.636 8.76503 137.636 5.79668C137.636 1.37216 134.64 0.280032 129.935 0.280032H123.382V20.0223H125.679ZM125.679 2.24026H129.935C133.295 2.24026 135.34 2.5483 135.34 6.18872C135.34 9.80115 133.295 10.1372 129.935 10.1372H125.679V2.24026Z" fill="black"/>
<path d="M153.915 20.0223V18.0621L143.974 18.3421V0.280032H141.677V18.6222C141.677 19.6863 142.294 20.3304 143.386 20.3024L153.915 20.0223Z" fill="black"/>
<path d="M172.017 15.0378C172.017 10.9213 167.537 9.85715 163.672 8.65301C160.424 7.61689 158.688 6.88881 158.688 4.81656C158.688 2.66031 160.676 1.96023 163.392 1.96023C166.417 1.96023 168.909 3.4444 168.909 6.77679H171.205C171.205 3.55642 169.217 0 163.392 0C158.52 0 156.391 1.84822 156.391 4.87257C156.391 8.37298 159.22 9.46511 163.112 10.6132C166.249 11.5654 169.721 12.1814 169.721 15.1498C169.721 17.5301 167.789 18.3421 164.428 18.3421C160.284 18.3421 157.792 17.278 157.792 12.6295H155.495C155.495 17.25 157.54 20.3024 164.428 20.3024C170.253 20.3024 172.017 17.9781 172.017 15.0378Z" fill="black"/>
<path d="M21.2148 17.0216C22.15 17.0216 22.9135 16.7136 23.5078 16.098C24.1012 15.4819 24.3982 14.6915 24.3982 13.7272C24.3982 12.7629 24.1012 11.9725 23.5078 11.3565C22.9135 10.7404 22.1463 10.4324 21.2041 10.4324C20.2611 10.4324 19.4934 10.7404 18.9 11.3565C18.3061 11.9725 18.0097 12.7629 18.0097 13.7272C18.0097 14.2022 18.0874 14.6471 18.2437 15.0629C18.3991 15.4782 18.6179 15.827 18.9 16.1086C19.1816 16.3912 19.5188 16.6137 19.9133 16.7769C20.306 16.9402 20.7398 17.0216 21.2148 17.0216ZM21.2148 20.0713C19.9832 20.0713 18.8704 19.7966 17.8765 19.2476C16.8816 18.6986 16.107 17.9378 15.5501 16.9656C14.9937 15.9939 14.7148 14.9149 14.7148 13.7272C14.7148 11.9022 15.3309 10.388 16.5625 9.18641C17.7942 7.98392 19.3454 7.38314 21.2148 7.38314C23.0699 7.38314 24.6132 7.98392 25.8448 9.18641C27.0765 10.388 27.6921 11.9022 27.6921 13.7272C27.6921 15.5379 27.0728 17.0479 25.8337 18.2569C24.5947 19.4663 23.0546 20.0713 21.2148 20.0713Z" fill="black"/>
<path d="M35.7984 20.0713C34.6111 20.0713 33.5317 19.7924 32.5595 19.236C31.5878 18.6796 30.8238 17.9114 30.2669 16.9323C29.7105 15.9532 29.4316 14.87 29.4316 13.6824C29.4316 11.8874 30.0403 10.388 31.2571 9.18595C32.4744 7.98392 33.9951 7.38267 35.821 7.38267C37.3787 7.38267 38.7144 7.83222 39.8272 8.72947C40.9404 9.62717 41.6448 10.8186 41.9417 12.3023H38.7144C38.4476 11.7237 38.0577 11.2672 37.5457 10.9333C37.0342 10.5993 36.4514 10.4324 35.7984 10.4324C34.9224 10.4324 34.1921 10.7441 33.6057 11.368C33.0192 11.9905 32.7265 12.7694 32.7265 13.7046C32.7265 14.6393 33.0229 15.4269 33.6168 16.0642C34.2102 16.702 34.9377 17.0216 35.7984 17.0216C36.4514 17.0216 37.03 16.8468 37.5346 16.498C38.0387 16.1498 38.4323 15.6489 38.7144 14.9958H41.9866C41.6892 16.5244 40.9774 17.7528 39.8499 18.6796C38.7214 19.6074 37.3709 20.0713 35.7984 20.0713Z" fill="black"/>
<path d="M6.36674 20.0713C5.17951 20.0713 4.10004 19.7924 3.12787 19.236C2.15616 18.6796 1.39212 17.9114 0.83527 16.9323C0.278886 15.9532 0 14.87 0 13.6824C0 11.8874 0.608646 10.388 1.82548 9.18595C3.04277 7.98392 4.56346 7.38267 6.3894 7.38267C7.94709 7.38267 9.28279 7.83222 10.3956 8.72947C11.5088 9.62717 12.2132 10.8186 12.5101 12.3023H9.28279C9.01592 11.7237 8.62604 11.2672 8.11405 10.9333C7.60253 10.5993 7.01979 10.4324 6.36674 10.4324C5.49077 10.4324 4.76049 10.7441 4.17404 11.368C3.58759 11.9905 3.29483 12.7694 3.29483 13.7046C3.29483 14.6393 3.59129 15.4269 4.18514 16.0642C4.77852 16.702 5.50603 17.0216 6.36674 17.0216C7.01979 17.0216 7.59837 16.8468 8.10295 16.498C8.60708 16.1498 9.00066 15.6489 9.28279 14.9958H12.555C12.2576 16.5244 11.5458 17.7528 10.4182 18.6796C9.28972 19.6074 7.93923 20.0713 6.36674 20.0713Z" fill="black"/>
<path d="M50.6464 17.0216C51.5816 17.0216 52.3456 16.7136 52.9395 16.098C53.5329 15.4819 53.8303 14.6915 53.8303 13.7272C53.8303 12.7629 53.5329 11.9725 52.9395 11.3565C52.3456 10.7404 51.5779 10.4324 50.6358 10.4324C49.6928 10.4324 48.925 10.7404 48.3316 11.3565C47.7378 11.9725 47.4413 12.7629 47.4413 13.7272C47.4413 14.2022 47.519 14.6471 47.6749 15.0629C47.8307 15.4782 48.0495 15.827 48.3316 16.1086C48.6133 16.3912 48.9509 16.6137 49.345 16.7769C49.7372 16.9402 50.1719 17.0216 50.6464 17.0216ZM50.6464 20.0713C49.4148 20.0713 48.302 19.7966 47.3081 19.2476C46.3137 18.6986 45.5381 17.9378 44.9818 16.9656C44.4254 15.9939 44.1465 14.9149 44.1465 13.7272C44.1465 11.9022 44.7625 10.388 45.9942 9.18641C47.2258 7.98392 48.7765 7.38314 50.6464 7.38314C52.5015 7.38314 54.0448 7.98392 55.2765 9.18641C56.5081 10.388 57.1242 11.9022 57.1242 13.7272C57.1242 15.5379 56.5044 17.0479 55.2654 18.2569C54.0264 19.4663 52.4862 20.0713 50.6464 20.0713Z" fill="black"/>
</g>
<defs>
<clipPath id="clip0_36_1283">
<rect width="172.017" height="20.3033" fill="white"/>
</clipPath>
</defs>
</svg>
